Coordinates
version=1
nRows=12
nColumns=24
inDegrees=yes

Units are S.I. units (second, meters, Newtons, ...)
Angles are in degrees.

endheader
time	pelvis_tilt	pelvis_list	pelvis_rotation	pelvis_tx	pelvis_ty	pelvis_tz	hip_flexion_r	hip_adduction_r	hip_rotation_r	knee_angle_r	ankle_angle_r	subtalar_angle_r	mtp_angle_r	hip_flexion_l	hip_adduction_l	hip_rotation_l	knee_angle_l	ankle_angle_l	subtalar_angle_l	mtp_angle_l	lumbar_extension	lumbar_bending	lumbar_rotation
      1.70366667	     -1.53484705	      9.25192161	     -7.13418217	      1.34336375	      1.00215069	      0.26843021	     15.53314495	    -12.37348506	      2.60947864	    -68.18355751	     -9.26791257	    -11.81563845	      2.50657801	     11.45576583	     13.61674614	      4.96408857	    -14.06454538	      2.76531721	    -19.32872651	     -4.15595609	    -10.39255756	     -4.92374762	      4.04557107
      1.70783333	     -1.48485208	      9.05984942	     -6.96520860	      1.34819731	      1.00317256	      0.26813357	     16.01704161	    -12.08077221	      2.62372404	    -67.95911989	     -8.01920088	    -11.37296943	      2.61475624	     10.84358981	     13.49499045	      5.27784905	    -13.66319611	      2.77538199	    -19.35479465	     -4.15412807	    -10.49968419	     -4.62820261	      3.63314409
      1.71200000	     -1.45188466	      8.85877812	     -6.81524737	      1.35300285	      1.00414764	      0.26786222	     16.51611879	    -11.77242111	      2.65546410	    -67.68661298	     -6.83799991	    -10.93614798	      2.71152363	     10.25139756	     13.35202728	      5.56992950	    -13.25756227	      2.80661504	    -19.36209457	     -4.15251438	    -10.58175956	     -4.32512039	      3.30569449
      1.71616667	     -1.41127028	      8.65388842	     -6.67291056	      1.35782568	      1.00511051	      0.26760365	     16.99476683	    -11.46465410	      2.68733718	    -67.36226973	     -5.72105700	    -10.49469803	      2.78368557	      9.64720073	     13.19932062	      5.85366761	    -12.84594093	      2.85709569	    -19.35296378	     -4.15380381	    -10.65964235	     -4.01569767	      3.01457504
      1.72033333	     -1.36817967	      8.45617089	     -6.53641428	      1.36263638	      1.00602192	      0.26735786	     17.46768853	    -11.16367232	      2.72896597	    -67.00402197	     -4.64951250	    -10.10035546	      2.84318285	      9.04971272	     13.04795364	      6.11381091	    -12.44177833	      2.89735490	    -19.34419568	     -4.15516514	    -10.75079990	     -3.71955595	      2.72738422
      1.72450000	     -1.32514902	      8.27409771	     -6.39394861	      1.36744170	      1.00688547	      0.26710801	     17.93746432	    -10.88682855	      2.76222488	    -66.61168031	     -3.62971200	     -9.74092879	      2.89327058	      8.45265688	     12.90989019	      6.37611587	    -12.03501457	      2.93486623	    -19.33685373	     -4.15768817	    -10.83482953	     -3.44151147	      2.42245813
      1.72866667	     -1.27190489	      8.10379200	     -6.25573478	      1.37220763	      1.00771139	      0.26687496	     18.38972253	    -10.62521597	      2.79820888	    -66.18202864	     -2.64510349	     -9.44906797	      2.94154126	      7.84987030	     12.77890967	      6.63576597	    -11.61574083	      2.92996668	    -19.34205294	     -4.16498801	    -10.94002842	     -3.17980629	      2.07999960
      1.73283333	     -1.25141250	      7.91534524	     -6.13164790	      1.37701034	      1.00845999	      0.26667245	     18.86759437	    -10.33287517	      2.85278165	    -65.70451221	     -1.76458787	     -9.16311500	      2.97257316	      7.28383582	     12.61761144	      6.85932302	    -11.21548373	      2.98808908	    -19.30889396	     -4.16831812	    -10.99153910	     -2.89887253	      1.85696585
      1.73700000	     -1.20078196	      7.76352630	     -6.00813343	      1.38179561	      1.00917922	      0.26646341	     19.31304495	    -10.09798565	      2.89680562	    -65.20152227	     -0.89048103	     -8.90231867	      2.99538977	      6.69410093	     12.49580028	      7.07587495	    -10.81201813	      3.01803623	    -19.29016981	     -4.17222136	    -11.07748837	     -2.66098088	      1.57750032
      1.74116667	     -1.17330825	      7.60277229	     -5.87979625	      1.38650895	      1.00982248	      0.26627378	     19.77949876	     -9.84311588	      2.94987966	    -64.66545216	     -0.12193814	     -8.72952041	      3.00946527	      6.14284576	     12.35683876	      7.28475265	    -10.43420449	      3.05782642	    -19.25223640	     -4.17838364	    -11.14704008	     -2.41720131	      1.31486557
      1.74533333	     -1.13636195	      7.44260742	     -5.76059989	      1.39129038	      1.01045120	      0.26610151	     20.21256127	     -9.59494909	      3.00015845	    -64.07657893	      0.61756957	     -8.58412495	      3.01559610	      5.57634308	     12.21484884	      7.47696125	    -10.04893053	      3.09824128	    -19.21471278	     -4.18358894	    -11.21905705	     -2.17190050	      1.06016172
      1.74950000	     -1.10556754	      7.30980939	     -5.63237054	      1.39603069	      1.01099221	      0.26592302	     20.65455869	     -9.38308044	      3.04774714	    -63.46883596	      1.31053320	     -8.47844924	      3.01413455	      5.03247503	     12.09902144	      7.67286039	     -9.67941011	      3.13706930	    -19.16738314	     -4.18759154	    -11.28634131	     -1.96237835	      0.80239787
